<?xml version="1.0" encoding="utf-8"?>
<!-- Generator: Adobe Illustrator 28.2.0, SVG Export Plug-In . SVG Version: 6.00 Build 0)  -->
<svg version="1.1" id="Layer_1" xmlns="http://www.w3.org/2000/svg" xmlns:xlink="http://www.w3.org/1999/xlink" x="0px" y="0px"
	 viewBox="0 0 252 252" style="enable-background:new 0 0 252 252;" xml:space="preserve">
<style type="text/css">
	.st0{fill:#EF465A;}
</style>
<g>
	<g>
		<path class="st0" d="M0,126C0,56.41,56.41,0,126,0s126,56.41,126,126s-56.41,126-126,126S0,195.59,0,126z M126,241.99
			c64.06,0,115.99-51.93,115.99-115.99S190.06,10.01,126,10.01S10.01,61.94,10.01,126S61.94,241.99,126,241.99L126,241.99z"/>
	</g>
	<g transform="matrix(1,0,0,1,26.371421923094562,23.32501155422314)">
		<g>
			<path class="st0" d="M137.98,86.93l-5.96-5.33l2.51-7.6l-7.44-2.9l-0.23-7.99l-7.99-0.23l-2.98-7.44l-7.6,2.51l-5.33-6.03
				l-6.27,5.01l-7.05-3.84l-4.15,6.82l-7.99-1.18l-1.57,7.83L68.1,68.2l1.17,7.91l-6.89,4.23l3.84,7.05l-4.93,6.27l6.03,5.25
				l-2.59,7.6l7.44,2.98l0.23,7.99l7.99,0.24l2.9,7.44l7.6-2.51l5.33,6.03l6.35-5.09l7.05,3.84l4.15-6.82l7.91,1.18l1.57-7.83
				l7.91-1.57l-1.17-7.91l6.81-4.23l-3.84-7.05L137.98,86.93z M113.38,108.71H85.65v-2.59c0.67-0.05,1.66-0.13,3.13-0.31
				c1.47-0.18,2.52-0.37,3.06-0.55c0.67-0.22,1.19-0.56,1.57-1.1c0.38-0.54,0.63-1.33,0.63-2.27V80.58h-8.54v-3.21h1.8
				c1.95,0,3.67-0.2,5.09-0.63c1.42-0.43,2.58-0.96,3.52-1.57c0.96-0.63,1.81-1.21,2.43-1.88c0.62-0.67,1.05-1.29,1.41-1.8h5.88
				c-0.07,1.46-0.09,3.14-0.16,5.09c-0.07,1.95-0.08,3.7-0.08,5.25v19.66c0,0.81,0.12,1.52,0.47,2.11s0.92,1.1,1.57,1.41
				c0.58,0.27,1.53,0.48,2.9,0.7c1.37,0.22,2.4,0.35,3.06,0.39L113.38,108.71L113.38,108.71z"/>
			<polygon class="st0" points="115.1,123.82 110.48,131.42 102.65,127.19 95.67,132.68 89.8,126.02 81.34,128.92 78.05,120.53 
				74.37,120.46 74.37,120.46 61.75,153.28 80.4,150.15 90.11,164.17 98.02,143.8 104.37,161.98 114.55,148.27 133.12,151.87 
				123.64,125.08 			"/>
		</g>
	</g>
</g>
</svg>
