<svg xmlns="http://www.w3.org/2000/svg" version="1.1" xmlns:xlink="http://www.w3.org/1999/xlink" xmlns:svgjs="http://svgjs.dev/svgjs" width="1500" height="253" viewBox="0 0 1500 253"><g transform="matrix(1,0,0,1,-0.9090909090909918,-0.13316145966327042)"><svg viewBox="0 0 396 67" data-background-color="#282634" preserveAspectRatio="xMidYMid meet" height="253" width="1500" xmlns="http://www.w3.org/2000/svg" xmlns:xlink="http://www.w3.org/1999/xlink"><g id="tight-bounds" transform="matrix(1,0,0,1,0.2400000000000091,0.03526410196616325)"><svg viewBox="0 0 395.52 66.92926527541366" height="66.92926527541366" width="395.52"><g><svg viewBox="0 0 497.14295701277183 84.12574041694826" height="66.92926527541366" width="395.52"><g transform="matrix(1,0,0,1,101.62295701277183,23.533650173587514)"><svg viewBox="0 0 395.52 37.05844006977323" height="37.05844006977323" width="395.52"><g id="textblocktransform"><svg viewBox="0 0 395.52 37.05844006977323" height="37.05844006977323" width="395.52" id="textblock"><g><svg viewBox="0 0 395.52 37.05844006977323" height="37.05844006977323" width="395.52"><g transform="matrix(1,0,0,1,0,0)"><svg width="395.52" viewBox="4.5 -37 401.26 37.6" height="37.05844006977323" data-palette-color="#dcdcdc"><path d="M9.25 0L4.5 0 4.5-35 9.25-35 9.25 0ZM22.25 0L17.75 0 17.75-26 22.1-26 22.1-21.65Q23.5-23.75 25.67-25.18 27.85-26.6 30.85-26.6L30.85-26.6Q35.25-26.6 37.42-23.95 39.6-21.3 39.6-16.95L39.6-16.95 39.6 0 35.1 0 35.1-16.45Q35.1-19.25 33.77-20.95 32.45-22.65 30.1-22.65L30.1-22.65Q27.8-22.65 25.75-21.03 23.7-19.4 22.25-17.2L22.25-17.2 22.25 0ZM57.2 0.6L57.2 0.6Q54 0.6 51.35-1.05 48.7-2.7 47.15-5.73 45.6-8.75 45.6-12.85L45.6-12.85Q45.6-16.8 47.17-19.9 48.75-23 51.37-24.8 54-26.6 57.15-26.6L57.15-26.6Q59.75-26.6 61.62-25.55 63.5-24.5 64.55-23.4L64.55-23.4 64.55-37 69.05-37 69.05-6.3Q69.05-4.4 69.97-3.83 70.9-3.25 72-3.25L72-3.25 71.05 0.25Q66.3 0.25 65.25-3.55L65.25-3.55Q64.15-2 62.17-0.7 60.2 0.6 57.2 0.6ZM58.2-3.4L58.2-3.4Q60.05-3.4 61.72-4.28 63.4-5.15 64.55-6.55L64.55-6.55 64.55-19.45Q63.6-20.65 61.9-21.68 60.2-22.7 58.15-22.7L58.15-22.7Q55.75-22.7 53.95-21.4 52.15-20.1 51.17-17.93 50.2-15.75 50.2-13L50.2-13Q50.2-10.25 51.25-8.08 52.3-5.9 54.12-4.65 55.95-3.4 58.2-3.4ZM82.49 0L77.99 0 77.99-26 82.49-26 82.49 0ZM80.24-30.45L80.24-30.45Q78.94-30.45 78.02-31.4 77.09-32.35 77.09-33.6L77.09-33.6Q77.09-35.05 77.94-35.9 78.79-36.75 80.24-36.75L80.24-36.75Q81.54-36.75 82.47-35.83 83.39-34.9 83.39-33.6L83.39-33.6Q83.39-32.2 82.54-31.33 81.69-30.45 80.24-30.45ZM100.89 0.6L100.89 0.6Q95.29 0.6 92.02-2.98 88.74-6.55 88.74-13L88.74-13Q88.74-16.9 90.22-19.98 91.69-23.05 94.34-24.83 96.99-26.6 100.49-26.6L100.49-26.6Q104.24-26.6 106.72-24.98 109.19-23.35 110.44-20.6 111.69-17.85 111.69-14.55L111.69-14.55Q111.69-12.8 111.54-11.15L111.54-11.15 93.34-11.15Q93.79-7.5 95.89-5.45 97.99-3.4 101.44-3.4L101.44-3.4Q103.69-3.4 105.49-3.88 107.29-4.35 108.94-5.1L108.94-5.1 109.99-1.25Q108.19-0.45 105.94 0.08 103.69 0.6 100.89 0.6ZM93.29-14.8L93.29-14.8 107.54-14.8Q107.54-18.6 105.64-20.65 103.74-22.7 100.39-22.7L100.39-22.7Q97.49-22.7 95.59-20.68 93.69-18.65 93.29-14.8ZM142.38 0.4L142.38 0.4Q139.53 0.4 137.41 0.25 135.28 0.1 133.19-0.1L133.19-0.1 133.19-34.9Q135.53-35.15 137.78-35.27 140.03-35.4 142.94-35.4L142.94-35.4Q147.44-35.4 150.71-34 153.99-32.6 156.11-30.15 158.24-27.7 159.26-24.48 160.28-21.25 160.28-17.55L160.28-17.55Q160.28-13.9 159.24-10.65 158.19-7.4 156.01-4.93 153.84-2.45 150.46-1.03 147.09 0.4 142.38 0.4ZM142.53-3.75L142.53-3.75Q147.03-3.75 149.88-5.5 152.74-7.25 154.09-10.38 155.44-13.5 155.44-17.55L155.44-17.55Q155.44-21.15 154.09-24.3 152.74-27.45 149.94-29.38 147.13-31.3 142.78-31.3L142.78-31.3Q141.34-31.3 140.13-31.23 138.94-31.15 137.94-31.05L137.94-31.05 137.94-4Q138.99-3.85 140.13-3.8 141.28-3.75 142.53-3.75ZM177.18 0.6L177.18 0.6Q171.58 0.6 168.31-2.98 165.03-6.55 165.03-13L165.03-13Q165.03-16.9 166.51-19.98 167.98-23.05 170.63-24.83 173.28-26.6 176.78-26.6L176.78-26.6Q180.53-26.6 183.01-24.98 185.48-23.35 186.73-20.6 187.98-17.85 187.98-14.55L187.98-14.55Q187.98-12.8 187.83-11.15L187.83-11.15 169.63-11.15Q170.08-7.5 172.18-5.45 174.28-3.4 177.73-3.4L177.73-3.4Q179.98-3.4 181.78-3.88 183.58-4.35 185.23-5.1L185.23-5.1 186.28-1.25Q184.48-0.45 182.23 0.08 179.98 0.6 177.18 0.6ZM169.58-14.8L169.58-14.8 183.83-14.8Q183.83-18.6 181.93-20.65 180.03-22.7 176.68-22.7L176.68-22.7Q173.78-22.7 171.88-20.68 169.98-18.65 169.58-14.8ZM205.63 0L200.93 0 190.48-24.8 194.58-26.5 203.43-5.1 212.28-26.5 216.13-24.8 205.63 0ZM264.53-1.25L260.18 0.5 256.28-9.5 240.08-9.5 236.18 0.4 232.13-1.25 245.83-35 251.03-35 264.53-1.25ZM248.18-30.3L241.58-13.5 254.73-13.5 248.18-30.3ZM278.42 0L273.47 0 265.27-24.8 269.42-26.25 276.12-5.1 282.22-24.15 287.07-24.15 293.02-5.1 299.67-26.25 303.67-24.8 295.42 0 290.47 0 284.47-19.35 278.42 0ZM318.37 0.6L318.37 0.6Q315.12 0.6 312.47-1.05 309.82-2.7 308.25-5.73 306.67-8.75 306.67-12.85L306.67-12.85Q306.67-16.75 308.25-19.85 309.82-22.95 312.6-24.78 315.37-26.6 318.97-26.6L318.97-26.6Q321.22-26.6 323.05-25.83 324.87-25.05 326.22-23.9L326.22-23.9 326.22-26 330.32-26 330.32-6.3Q330.32-4.4 331.25-3.83 332.17-3.25 333.27-3.25L333.27-3.25 332.32 0.25Q327.52 0.25 326.52-3.65L326.52-3.65Q325.37-2.05 323.4-0.73 321.42 0.6 318.37 0.6ZM319.37-3.4L319.37-3.4Q321.27-3.4 322.97-4.33 324.67-5.25 325.82-6.65L325.82-6.65 325.82-20.6Q324.47-21.55 322.85-22.13 321.22-22.7 319.42-22.7L319.42-22.7Q317.02-22.7 315.19-21.48 313.37-20.25 312.32-18.07 311.27-15.9 311.27-13L311.27-13Q311.27-10.2 312.32-8.03 313.37-5.85 315.22-4.63 317.07-3.4 319.37-3.4ZM343.77 0L339.27 0 339.27-26 343.62-26 343.62-20.35Q344.27-22 345.37-23.43 346.47-24.85 348.12-25.73 349.77-26.6 351.97-26.6L351.97-26.6Q352.72-26.6 353.47-26.53 354.22-26.45 354.72-26.3L354.72-26.3 353.37-21.65Q352.42-22.05 351.12-22.05L351.12-22.05Q349.27-22.05 347.59-21 345.92-19.95 344.84-17.75 343.77-15.55 343.77-12.15L343.77-12.15 343.77 0ZM367.57 0.6L367.57 0.6Q364.37 0.6 361.72-1.05 359.07-2.7 357.52-5.73 355.97-8.75 355.97-12.85L355.97-12.85Q355.97-16.8 357.54-19.9 359.12-23 361.74-24.8 364.37-26.6 367.52-26.6L367.52-26.6Q370.12-26.6 371.99-25.55 373.87-24.5 374.92-23.4L374.92-23.4 374.92-37 379.42-37 379.42-6.3Q379.42-4.4 380.34-3.83 381.27-3.25 382.37-3.25L382.37-3.25 381.42 0.25Q376.67 0.25 375.62-3.55L375.62-3.55Q374.52-2 372.54-0.7 370.57 0.6 367.57 0.6ZM368.57-3.4L368.57-3.4Q370.42-3.4 372.09-4.28 373.77-5.15 374.92-6.55L374.92-6.55 374.92-19.45Q373.97-20.65 372.27-21.68 370.57-22.7 368.52-22.7L368.52-22.7Q366.12-22.7 364.32-21.4 362.52-20.1 361.54-17.93 360.57-15.75 360.57-13L360.57-13Q360.57-10.25 361.62-8.08 362.67-5.9 364.49-4.65 366.32-3.4 368.57-3.4ZM395.36 0.6L395.36 0.6Q392.41 0.6 390.04-0.15 387.66-0.9 386.11-2.1L386.11-2.1 388.01-5.85Q389.31-4.75 391.29-4.03 393.26-3.3 395.51-3.3L395.51-3.3Q398.31-3.3 399.74-4.23 401.16-5.15 401.16-6.6L401.16-6.6Q401.16-7.65 400.64-8.45 400.11-9.25 398.71-10.03 397.31-10.8 394.66-11.7L394.66-11.7Q391.01-12.95 389.19-14.68 387.36-16.4 387.36-19.45L387.36-19.45Q387.36-22.45 389.99-24.53 392.61-26.6 397.26-26.6L397.26-26.6Q399.76-26.6 401.71-26.08 403.66-25.55 405.21-24.75L405.21-24.75 403.96-21.05Q402.61-21.85 400.89-22.35 399.16-22.85 397.06-22.85L397.06-22.85Q394.46-22.85 393.11-21.8 391.76-20.75 391.76-19.5L391.76-19.5Q391.76-18.3 392.81-17.45 393.86-16.6 396.91-15.6L396.91-15.6Q401.86-13.95 403.81-11.95 405.76-9.95 405.76-6.95L405.76-6.95Q405.76-3.45 402.94-1.43 400.11 0.6 395.36 0.6Z" opacity="1" transform="matrix(1,0,0,1,0,0)" fill="#dcdcdc" class="wordmark-text-0" data-fill-palette-color="primary" id="text-0"></path></svg></g></svg></g></svg></g></svg></g><g><svg viewBox="0 0 84.12574041694826 84.12574041694826" height="84.12574041694826" width="84.12574041694826"><g><svg></svg></g><g id="icon-0"><svg viewBox="0 0 84.12574041694826 84.12574041694826" height="84.12574041694826" width="84.12574041694826"><g><path d="M0 42.063c0-23.231 18.832-42.063 42.063-42.063 23.231 0 42.063 18.832 42.063 42.063 0 23.231-18.832 42.063-42.063 42.063-23.231 0-42.063-18.832-42.063-42.063zM42.063 80.784c21.385 0 38.721-17.336 38.721-38.721 0-21.385-17.336-38.721-38.721-38.721-21.385 0-38.721 17.336-38.721 38.721 0 21.385 17.336 38.721 38.721 38.721z" data-fill-palette-color="accent" fill="#dcdcdc" stroke="transparent"></path></g><g transform="matrix(1,0,0,1,26.371421923094562,23.32501155422314)"><svg viewBox="0 0 31.382896570759137 37.475717308501984" height="37.475717308501984" width="31.382896570759137"><g><svg version="1.1" xmlns:rdf="http://www.w3.org/1999/02/22-rdf-syntax-ns#" xmlns:dc="http://purl.org/dc/elements/1.1/" xmlns:cc="http://creativecommons.org/ns#" xmlns:svg="http://www.w3.org/2000/svg" xmlns="http://www.w3.org/2000/svg" xmlns:xlink="http://www.w3.org/1999/xlink" x="0" y="0" viewBox="0.4170496794402663 0 83.74195032055974 100" enable-background="new 15.841 0 68.318 100" xml:space="preserve" width="31.382896570759137" height="37.475717308501984" class="icon-cg-0" data-fill-palette-color="accent" id="cg-0"><path d="M84.159 31.193l-5.305-4.745 2.233-6.769-6.629-2.582L74.25 9.979 67.132 9.77 64.48 3.14l-6.77 2.233L52.965 0l-5.582 4.466-6.28-3.419-3.699 6.072-7.118-1.047-1.396 6.978-6.979 1.466 1.046 7.048-6.141 3.768 3.419 6.28-4.396 5.583 5.373 4.676-2.303 6.769 6.63 2.652 0.209 7.117 7.118 0.21 2.582 6.63 6.769-2.233 4.745 5.373 5.653-4.536 6.28 3.42 3.699-6.071 7.047 1.047 1.396-6.979 7.048-1.396-1.046-7.048 6.07-3.768-3.419-6.281L84.159 31.193zM62.247 50.594H37.543v-2.303c0.599-0.041 1.483-0.118 2.792-0.279 1.308-0.161 2.242-0.329 2.722-0.489 0.599-0.199 1.056-0.498 1.396-0.977 0.339-0.479 0.559-1.185 0.559-2.023V25.541h-7.607V22.68h1.605c1.738 0 3.268-0.178 4.536-0.558 1.269-0.38 2.301-0.856 3.14-1.396 0.859-0.559 1.614-1.076 2.163-1.675 0.55-0.599 0.937-1.145 1.256-1.605h5.234c-0.06 1.298-0.08 2.799-0.141 4.536-0.059 1.738-0.068 3.297-0.068 4.675v17.516c0 0.719 0.108 1.354 0.418 1.884s0.816 0.977 1.396 1.256c0.52 0.239 1.364 0.428 2.582 0.628 1.219 0.199 2.142 0.309 2.722 0.349V50.594z" fill="#dcdcdc" data-fill-palette-color="accent"></path><polygon points="63.782,64.062 59.665,70.83 52.688,67.062 46.476,71.947 41.242,66.016 33.706,68.598 30.774,61.131 27.495,61.062 	27.495,61.061 16.26,90.3 32.868,87.509 41.521,100 48.57,81.856 54.222,98.047 63.293,85.834 79.832,89.045 71.389,65.178 " fill="#dcdcdc" data-fill-palette-color="accent"></polygon></svg></g></svg></g></svg></g></svg></g></svg></g><defs></defs></svg><rect width="395.52" height="66.92926527541366" fill="none" stroke="none" visibility="hidden"></rect></g></svg></g></svg>