<svg xmlns="http://www.w3.org/2000/svg" version="1.1" xmlns:xlink="http://www.w3.org/1999/xlink" xmlns:svgjs="http://svgjs.dev/svgjs" width="1500" height="250" viewBox="0 0 1500 250"><g transform="matrix(1,0,0,1,-0.9090909090908781,-0.01965125711566884)"><svg viewBox="0 0 396 66" data-background-color="#282634" preserveAspectRatio="xMidYMid meet" height="250" width="1500" xmlns="http://www.w3.org/2000/svg" xmlns:xlink="http://www.w3.org/1999/xlink"><g id="tight-bounds" transform="matrix(1,0,0,1,0.2400000000000091,0.005187931878538166)"><svg viewBox="0 0 395.52 65.98962413624294" height="65.98962413624294" width="395.52"><g><svg viewBox="0 0 495.397311201314 82.65342426243954" height="65.98962413624294" width="395.52"><g transform="matrix(1,0,0,1,99.877311201314,23.086943011450654)"><svg viewBox="0 0 395.52 36.479538239538236" height="36.479538239538236" width="395.52"><g id="textblocktransform"><svg viewBox="0 0 395.52 36.479538239538236" height="36.479538239538236" width="395.52" id="textblock"><g><svg viewBox="0 0 395.52 36.479538239538236" height="36.479538239538236" width="395.52"><g transform="matrix(1,0,0,1,0,0)"><svg width="395.52" viewBox="1.66 -36.84 406.02 37.45" height="36.479538239538236" data-palette-color="#dcdcdc"><path d="M14.84-2.15L14.84 0 1.66 0 1.66-2.15 4.64-2.34Q5.18-2.39 5.43-2.73 5.69-3.08 5.69-3.44L5.69-3.44 5.69-30.1Q5.69-30.47 5.43-30.8 5.18-31.13 4.64-31.15L4.64-31.15 1.66-31.35 1.66-33.54 14.84-33.54 14.84-31.35 11.79-31.15Q11.28-31.13 11.01-30.8 10.74-30.47 10.74-30.1L10.74-30.1 10.74-3.44Q10.74-3.08 11.01-2.73 11.28-2.39 11.79-2.34L11.79-2.34 14.84-2.15ZM43.85-1.95L43.85 0 32.81 0 32.81-1.95 34.91-2.1Q35.35-2.15 35.65-2.44 35.96-2.73 35.96-3.2L35.96-3.2 35.96-16.21Q35.96-18.58 34.86-19.81 33.76-21.04 31.15-21.04L31.15-21.04Q29.73-21.04 28.33-20.64 26.93-20.24 25.66-19.6L25.66-19.6 25.66-3.2Q25.66-2.17 26.71-2.1L26.71-2.1 28.81-1.95 28.81 0 17.5 0 17.5-1.95 19.94-2.1Q20.99-2.17 20.99-3.2L20.99-3.2 20.99-20.56 17.5-20.56 17.5-22.19 23.61-24.1 25.66-24.1 25.66-21.61Q27.76-22.8 29.97-23.75 32.18-24.71 33.91-24.71L33.91-24.71Q37.18-24.71 38.89-22.67 40.6-20.63 40.6-16.99L40.6-16.99 40.6-3.2Q40.6-2.73 40.9-2.44 41.21-2.15 41.65-2.1L41.65-2.1 43.85-1.95ZM71.75-1.95L71.75 0 63.89 0 63.89-2.66Q62.18-1.34 60.25-0.37 58.32 0.61 56.15 0.61L56.15 0.61Q53.63 0.61 51.81-0.45 50-1.51 48.84-3.27 47.68-5.03 47.11-7.15 46.55-9.28 46.55-11.4L46.55-11.4Q46.55-14.79 47.94-17.83 49.34-20.87 52.17-22.79 55-24.71 59.3-24.71L59.3-24.71Q60.49-24.71 61.9-24.48 63.3-24.24 63.89-24.1L63.89-24.1 63.89-33.25 60.1-33.25 60.1-34.91 66.55-36.84 68.55-36.84 68.55-3.2Q68.55-2.17 69.6-2.1L69.6-2.1 71.75-1.95ZM63.89-4.54L63.89-4.54 63.89-21.56Q63.25-21.78 61.99-22.03 60.74-22.29 59.64-22.29L59.64-22.29Q55.93-22.29 53.71-19.54 51.48-16.8 51.48-12.26L51.48-12.26Q51.48-8.18 53.39-5.49 55.29-2.81 58.74-2.81L58.74-2.81Q60.25-2.81 61.58-3.38 62.91-3.96 63.89-4.54ZM83.93-32.35L83.93-32.35Q83.93-31.08 83.05-30.16 82.17-29.25 80.9-29.25L80.9-29.25Q79.63-29.25 78.72-30.16 77.8-31.08 77.8-32.35L77.8-32.35Q77.8-33.64 78.72-34.52 79.63-35.4 80.9-35.4L80.9-35.4Q82.17-35.4 83.05-34.52 83.93-33.64 83.93-32.35ZM86.49-1.95L86.49 0 74.75 0 74.75-1.95 77.19-2.1Q78.24-2.17 78.24-3.2L78.24-3.2 78.24-21.04 74.8-21.04 74.8-22.8 80.9-24.71 82.88-24.71 82.88-3.2Q82.88-2.73 83.18-2.44 83.49-2.15 83.93-2.1L83.93-2.1 86.49-1.95ZM111-5.54L111-2.49Q108.9-1.2 106.47-0.29 104.04 0.61 101.5 0.61L101.5 0.61Q98.48 0.61 95.83-0.74 93.18-2.1 91.54-4.86 89.91-7.62 89.91-11.79L89.91-11.79Q89.91-15.7 91.42-18.6 92.93-21.51 95.6-23.11 98.26-24.71 101.65-24.71L101.65-24.71Q106.31-24.71 108.66-21.81 111-18.92 111-14.45L111-14.45Q111-14.21 111-13.81 111-13.4 110.95-13.06L110.95-13.06 94.74-13.06Q94.74-11.16 95.14-9.27 95.55-7.37 96.5-5.83 97.45-4.3 99.06-3.37 100.67-2.44 103.09-2.44L103.09-2.44Q105.24-2.44 107.28-3.43 109.32-4.42 111-5.54L111-5.54ZM95.01-15.31L106-15.31 106-16.41Q106-18.87 104.81-20.56 103.63-22.24 101.14-22.24L101.14-22.24Q98.67-22.24 96.94-20.39 95.2-18.53 95.01-15.31L95.01-15.31ZM168.08-16.85L168.08-16.85Q168.08-13.57 167.12-10.55 166.17-7.52 164.11-5.14 162.05-2.76 158.74-1.38 155.43 0 150.72 0L150.72 0 136.83 0 136.83-2.15 139.46-2.34Q140-2.39 140.28-2.73 140.56-3.08 140.56-3.44L140.56-3.44 140.56-30.1Q140.56-30.47 140.28-30.82 140-31.18 139.46-31.2L139.46-31.2 136.83-31.4 136.83-33.54 149.72-33.54Q154.97-33.54 159.12-31.77 163.27-30 165.67-26.32 168.08-22.63 168.08-16.85ZM162.41-16.75L162.41-16.75Q162.41-22 160.81-25.16 159.21-28.32 156.3-29.74 153.38-31.15 149.42-31.15L149.42-31.15 145.61-31.15 145.61-2.39 149.67-2.44Q153.53-2.49 156.38-3.92 159.24-5.35 160.82-8.47 162.41-11.6 162.41-16.75ZM192.8-5.54L192.8-2.49Q190.71-1.2 188.28-0.29 185.85 0.61 183.31 0.61L183.31 0.61Q180.28 0.61 177.63-0.74 174.98-2.1 173.35-4.86 171.71-7.62 171.71-11.79L171.71-11.79Q171.71-15.7 173.22-18.6 174.74-21.51 177.4-23.11 180.06-24.71 183.45-24.71L183.45-24.71Q188.12-24.71 190.46-21.81 192.8-18.92 192.8-14.45L192.8-14.45Q192.8-14.21 192.8-13.81 192.8-13.4 192.76-13.06L192.76-13.06 176.55-13.06Q176.55-11.16 176.95-9.27 177.35-7.37 178.3-5.83 179.25-4.3 180.87-3.37 182.48-2.44 184.89-2.44L184.89-2.44Q187.04-2.44 189.08-3.43 191.12-4.42 192.8-5.54L192.8-5.54ZM176.81-15.31L187.8-15.31 187.8-16.41Q187.8-18.87 186.62-20.56 185.43-22.24 182.94-22.24L182.94-22.24Q180.48-22.24 178.74-20.39 177.01-18.53 176.81-15.31L176.81-15.31ZM220.46-24.1L220.46-22.14 217.8-21.85 209.06 0 205.81 0 197.76-21.85 195-22.14 195-24.1 206.06-24.1 206.06-22.14 203.67-22Q202.86-21.92 202.86-21.19L202.86-21.19Q202.86-21.09 202.91-20.9L202.91-20.9 208.5-5.25 214.65-20.9Q214.73-21.04 214.73-21.22L214.73-21.22Q214.73-21.95 213.97-22L213.97-22 211.72-22.14 211.72-24.1 220.46-24.1ZM276.9-2.15L276.9 0 265.01 0 265.01-2.15 267.89-2.39Q268.09-2.39 268.26-2.65 268.43-2.91 268.43-3.13L268.43-3.13Q268.43-3.22 268.41-3.25L268.41-3.25 264.97-12.4 253.42-12.4 250.1-3.39Q250.07-3.34 250.07-3.25L250.07-3.25Q250.07-2.95 250.33-2.67 250.59-2.39 250.81-2.39L250.81-2.39 253.76-2.15 253.76 0 243.7 0 243.7-2.15 246.61-2.76 258.25-34.35 262.01-34.35 273.61-3.49Q273.8-2.98 273.95-2.81 274.1-2.64 274.66-2.54L274.66-2.54 276.9-2.15ZM254.3-14.79L264.06-14.79 259.15-27.91 254.3-14.79ZM315.79-24.1L315.79-22.14 313.25-21.85 306.39 0 302.85 0 296.95-18.7 290.35 0 286.79 0 280.39-21.85 277.63-22.14 277.63-24.1 288.6-24.1 288.6-22.14 286.25-22Q285.47-21.92 285.47-21.17L285.47-21.17Q285.47-21 285.49-20.9L285.49-20.9 289.65-5.35 296.09-24.1 299.66-24.1 305.44-5.35 310.06-20.9Q310.08-20.97 310.08-21.14L310.08-21.14Q310.08-21.46 309.88-21.72 309.69-21.97 309.35-22L309.35-22 307.05-22.14 307.05-24.1 315.79-24.1ZM340.91-1.95L340.91 0 333.51 0 332.86-2.95Q332.86-2.95 332.11-2.42 331.37-1.88 330.15-1.17 328.93-0.46 327.45 0.07 325.97 0.61 324.51 0.61L324.51 0.61Q321.8 0.61 319.9-1.2 318.01-3 318.01-6.15L318.01-6.15Q318.01-7.54 318.51-8.74 319.01-9.94 320.51-11.02 322.02-12.11 324.98-13.15 327.95-14.18 332.86-15.26L332.86-15.26 332.86-17.41Q332.86-22.34 328.19-22.34L328.19-22.34Q326.9-22.34 325.96-22.09 325.02-21.85 324.65-21.7L324.65-21.7 324.65-17.36 321.01-17.36Q320.33-17.36 319.75-17.61 319.16-17.87 319.16-18.8L319.16-18.8Q319.16-20.85 320.72-22.16 322.28-23.46 324.69-24.08 327.09-24.71 329.56-24.71L329.56-24.71Q332.66-24.71 334.37-23.74 336.08-22.78 336.76-21.08 337.45-19.38 337.45-17.21L337.45-17.21 337.45-3.2Q337.45-2.73 337.75-2.44 338.06-2.15 338.5-2.1L338.5-2.1 340.91-1.95ZM332.86-4.71L332.86-4.71 332.86-13.35Q329.49-12.52 327.5-11.68 325.51-10.84 324.53-10 323.55-9.16 323.25-8.29 322.94-7.42 322.94-6.49L322.94-6.49Q322.94-4.96 323.93-3.65 324.92-2.34 326.7-2.34L326.7-2.34Q327.7-2.34 328.78-2.7 329.85-3.05 330.78-3.53 331.71-4 332.28-4.36 332.86-4.71 332.86-4.71ZM360.78-23.95L360.78-18.99 358.83-18.99Q358.37-19.56 357.72-19.96 357.07-20.36 356.14-20.36L356.14-20.36Q354.95-20.36 353.69-19.53 352.43-18.7 351.14-17.26L351.14-17.26 351.14-3.2Q351.14-2.15 352.19-2.1L352.19-2.1 355.49-1.95 355.49 0 342.99 0 342.99-1.9 345.45-2.1Q345.89-2.15 346.2-2.44 346.5-2.73 346.5-3.2L346.5-3.2 346.5-20.56 342.89-20.56 342.89-22.19 349.09-24.1 351.14-24.1 351.14-19.65Q351.87-20.46 352.97-21.66 354.07-22.85 355.31-23.78 356.56-24.71 357.73-24.71L357.73-24.71Q358.51-24.71 359.42-24.46 360.32-24.22 360.78-23.95L360.78-23.95ZM388.2-1.95L388.2 0 380.34 0 380.34-2.66Q378.63-1.34 376.7-0.37 374.77 0.61 372.6 0.61L372.6 0.61Q370.08 0.61 368.26-0.45 366.44-1.51 365.28-3.27 364.13-5.03 363.56-7.15 363-9.28 363-11.4L363-11.4Q363-14.79 364.39-17.83 365.79-20.87 368.62-22.79 371.45-24.71 375.75-24.71L375.75-24.71Q376.94-24.71 378.35-24.48 379.75-24.24 380.34-24.1L380.34-24.1 380.34-33.25 376.55-33.25 376.55-34.91 383-36.84 385-36.84 385-3.2Q385-2.17 386.05-2.1L386.05-2.1 388.2-1.95ZM380.34-4.54L380.34-4.54 380.34-21.56Q379.7-21.78 378.44-22.03 377.19-22.29 376.09-22.29L376.09-22.29Q372.38-22.29 370.16-19.54 367.93-16.8 367.93-12.26L367.93-12.26Q367.93-8.18 369.84-5.49 371.74-2.81 375.18-2.81L375.18-2.81Q376.7-2.81 378.03-3.38 379.36-3.96 380.34-4.54ZM407.68-7.25L407.68-7.25Q407.68-3.56 405.14-1.48 402.6 0.61 398.13 0.61L398.13 0.61Q395.84 0.61 393.9 0.13 391.95-0.34 391.2-0.66L391.2-0.66 391.2-7.3 393.74-7.3 394.35-3.05Q395.1-2.56 396.21-2.11 397.33-1.66 398.79-1.66L398.79-1.66Q400.94-1.66 402.11-2.86 403.28-4.05 403.28-5.54L403.28-5.54Q403.28-7.52 401.87-8.53 400.45-9.55 397.84-10.79L397.84-10.79 397.18-11.11Q394.44-12.4 392.99-13.81 391.54-15.21 391.54-17.46L391.54-17.46Q391.54-20.8 393.88-22.75 396.23-24.71 400.55-24.71L400.55-24.71Q402.75-24.71 404.47-24.3 406.19-23.9 406.94-23.56L406.94-23.56 406.94-17.65 404.33-17.65 403.94-21.14Q403.4-21.56 402.36-21.92 401.31-22.29 400.13-22.29L400.13-22.29Q398.08-22.29 397.08-21.35 396.08-20.41 396.08-18.95L396.08-18.95Q396.08-17.26 397.29-16.27 398.5-15.28 401.67-13.84L401.67-13.84Q404.28-12.65 405.98-11.17 407.68-9.69 407.68-7.25Z" opacity="1" transform="matrix(1,0,0,1,0,0)" fill="#dcdcdc" class="wordmark-text-0" data-fill-palette-color="primary" id="text-0"></path></svg></g></svg></g></svg></g></svg></g><g><svg viewBox="0 0 82.65342426243954 82.65342426243954" height="82.65342426243954" width="82.65342426243954"><g><svg></svg></g><g id="icon-0"><svg viewBox="0 0 82.65342426243954 82.65342426243954" height="82.65342426243954" width="82.65342426243954"><g><path d="M0 41.327c0-22.824 18.503-41.327 41.327-41.327 22.824 0 41.327 18.503 41.326 41.327 0 22.824-18.503 41.327-41.326 41.326-22.824 0-41.327-18.503-41.327-41.326zM41.327 79.364c21.007 0 38.037-17.03 38.037-38.037 0-21.007-17.03-38.037-38.037-38.037-21.007 0-38.037 17.03-38.037 38.037 0 21.007 17.03 38.037 38.037 38.037z" data-fill-palette-color="accent" fill="#dcdcdc" stroke="transparent"></path></g><g transform="matrix(1,0,0,1,26.040262676099683,23.072480653920316)"><svg viewBox="0 0 30.572898910240177 36.50846295459891" height="36.50846295459891" width="30.572898910240177"><g><svg version="1.1" xmlns:rdf="http://www.w3.org/1999/02/22-rdf-syntax-ns#" xmlns:dc="http://purl.org/dc/elements/1.1/" xmlns:cc="http://creativecommons.org/ns#" xmlns:svg="http://www.w3.org/2000/svg" xmlns="http://www.w3.org/2000/svg" xmlns:xlink="http://www.w3.org/1999/xlink" x="0" y="0" viewBox="0.4170496794402663 0 83.74195032055974 100" enable-background="new 15.841 0 68.318 100" xml:space="preserve" width="30.572898910240177" height="36.50846295459891" class="icon-cg-0" data-fill-palette-color="accent" id="cg-0"><path d="M84.159 31.193l-5.305-4.745 2.233-6.769-6.629-2.582L74.25 9.979 67.132 9.77 64.48 3.14l-6.77 2.233L52.965 0l-5.582 4.466-6.28-3.419-3.699 6.072-7.118-1.047-1.396 6.978-6.979 1.466 1.046 7.048-6.141 3.768 3.419 6.28-4.396 5.583 5.373 4.676-2.303 6.769 6.63 2.652 0.209 7.117 7.118 0.21 2.582 6.63 6.769-2.233 4.745 5.373 5.653-4.536 6.28 3.42 3.699-6.071 7.047 1.047 1.396-6.979 7.048-1.396-1.046-7.048 6.07-3.768-3.419-6.281L84.159 31.193zM62.247 50.594H37.543v-2.303c0.599-0.041 1.483-0.118 2.792-0.279 1.308-0.161 2.242-0.329 2.722-0.489 0.599-0.199 1.056-0.498 1.396-0.977 0.339-0.479 0.559-1.185 0.559-2.023V25.541h-7.607V22.68h1.605c1.738 0 3.268-0.178 4.536-0.558 1.269-0.38 2.301-0.856 3.14-1.396 0.859-0.559 1.614-1.076 2.163-1.675 0.55-0.599 0.937-1.145 1.256-1.605h5.234c-0.06 1.298-0.08 2.799-0.141 4.536-0.059 1.738-0.068 3.297-0.068 4.675v17.516c0 0.719 0.108 1.354 0.418 1.884s0.816 0.977 1.396 1.256c0.52 0.239 1.364 0.428 2.582 0.628 1.219 0.199 2.142 0.309 2.722 0.349V50.594z" fill="#dcdcdc" data-fill-palette-color="accent"></path><polygon points="63.782,64.062 59.665,70.83 52.688,67.062 46.476,71.947 41.242,66.016 33.706,68.598 30.774,61.131 27.495,61.062 	27.495,61.061 16.26,90.3 32.868,87.509 41.521,100 48.57,81.856 54.222,98.047 63.293,85.834 79.832,89.045 71.389,65.178 " fill="#dcdcdc" data-fill-palette-color="accent"></polygon></svg></g></svg></g></svg></g></svg></g></svg></g><defs></defs></svg><rect width="395.52" height="65.98962413624294" fill="none" stroke="none" visibility="hidden"></rect></g></svg></g></svg>